PathFileType	4	(X/Y/Z)	C:\Users\Basilio\Documents\Thesis Gigler\squatting_fais\c3dfiles\041\SLS_pre_front2\markers_experimental.trc
DataRate	CameraRate	NumFrames	NumMarkers	Units	OrigDataRate	OrigDataStartFrame	OrigNumFrames
200.000000	200.000000	4	62	mm	200.000000	890	1425
Frame#	Time	FHD			LBHD			RBHD			C7			T10			CLAV			LSHO			LUUPA			LMUPA			LDUPA			LLEP			LMEP			LRAD			LUL			LRFIN			RSHO			RUPA1			RMUPA			RDUPA			RLEP			RMEP			RRAD			RUL			RUFIN			LASI			RASI			USACR			LSACR			RSACR			LTHI1			LTHI2			LTHI3			LTHI4			LLFC			LMFC			LTIB1			LTIB2			LTIB3			LTIB4			LLMAL			LMMAL			LHEE			LMT1			LMT2			LMT5			RTHI			RTHI2			RTHI3			RTHI4			RLFC			RMFC			RTIB1			RTIB2			RTIB3			RTIB4			RLMAL			RMMAL			RHEE			RMT1			RMT2			RMT5			*61			
		X1	Y1	Z1	X2	Y2	Z2	X3	Y3	Z3	X4	Y4	Z4	X5	Y5	Z5	X6	Y6	Z6	X7	Y7	Z7	X8	Y8	Z8	X9	Y9	Z9	X10	Y10	Z10	X11	Y11	Z11	X12	Y12	Z12	X13	Y13	Z13	X14	Y14	Z14	X15	Y15	Z15	X16	Y16	Z16	X17	Y17	Z17	X18	Y18	Z18	X19	Y19	Z19	X20	Y20	Z20	X21	Y21	Z21	X22	Y22	Z22	X23	Y23	Z23	X24	Y24	Z24	X25	Y25	Z25	X26	Y26	Z26	X27	Y27	Z27	X28	Y28	Z28	X29	Y29	Z29	X30	Y30	Z30	X31	Y31	Z31	X32	Y32	Z32	X33	Y33	Z33	X34	Y34	Z34	X35	Y35	Z35	X36	Y36	Z36	X37	Y37	Z37	X38	Y38	Z38	X39	Y39	Z39	X40	Y40	Z40	X41	Y41	Z41	X42	Y42	Z42	X43	Y43	Z43	X44	Y44	Z44	X45	Y45	Z45	X46	Y46	Z46	X47	Y47	Z47	X48	Y48	Z48	X49	Y49	Z49	X50	Y50	Z50	X51	Y51	Z51	X52	Y52	Z52	X53	Y53	Z53	X54	Y54	Z54	X55	Y55	Z55	X56	Y56	Z56	X57	Y57	Z57	X58	Y58	Z58	X59	Y59	Z59	X60	Y60	Z60	X61	Y61	Z61	X62	Y62	Z62	

891	4.45	-172.5926055908203	1556.417358398438	-1111.287841796875	-350.4834899902344	1490.655029296875	-1184.189208984375	-330.1522216796876	1499.696166992188	-1031.8916015625	-400.3365478515626	1373.785034179688	-1117.12646484375	-532.9517211914064	1098.376098632813	-1070.230346679688	-258.6793518066407	1284.85791015625	-1113.31689453125	-327.2167358398438	1373.194946289063	-1249.436889648438	-242.6435852050782	1359.410766601563	-1398.098266601563	-198.323715209961	1376.259887695313	-1389.633911132813	-192.7061920166016	1352.594604492188	-1446.721923828125	-152.9474334716797	1346.115844726563	-1469.410522460938	-100.3857421875	1290.994384765625	-1428.728271484375	98.25699615478518	1367.423828125	-1574.423095703125	56.75842285156251	1366.369018554688	-1634.925048828125	150.1249389648438	1413.646240234375	-1607.39111328125	-316.2969055175782	1381.886352539063	-993.9268798828127	-196.7279510498047	1395.736206054688	-855.0842895507815	-172.9923248291016	1420.651245117188	-893.0736083984377	-130.9918823242188	1422.366577148438	-850.3431396484377	-86.43502807617189	1428.423095703125	-845.595397949219	-56.22732162475587	1349.962524414063	-861.052673339844	181.2796020507813	1456.7060546875	-849.159362792969	162.1739959716797	1476.426391601563	-779.9024658203127	255.6641998291016	1492.693237304688	-841.0317993164065	-402.2835083007814	888.4210205078127	-1158.683715820313	-408.2117919921876	891.5103759765627	-933.9266357421877	-578.1608886718751	971.0596923828127	-1053.217407226563	-594.5334472656251	945.1796875000002	-1080.650634765625	-598.5759277343751	945.4459228515627	-1026.541870117188	-411.450408935547	696.7274169921876	-1217.922607421875	-332.2882690429688	664.5868530273439	-1210.932495117188	-298.5698852539063	696.6182250976564	-1202.77734375	-317.9481811523438	605.7835693359376	-1198.808959960938	-199.9321899414063	484.9183044433595	-1165.780883789063	-195.2005157470704	483.2106933593751	-1050.275512695313	-226.9137420654297	308.2036132812501	-1084.45556640625	-285.5153198242188	275.7229003906251	-1145.638549804688	-253.2524566650391	263.7575683593751	-1117.164672851563	-284.3406677246094	198.6376953125001	-1074.438110351563	-375.8262329101563	127.7677917480469	-1110.72705078125	-337.7369384765626	138.7798919677735	-1027.811767578125	-447.7749938964845	116.166748046875	-1064.342895507813	-241.7577056884766	63.75888442993165	-1038.438598632813	-235.3992767333985	57.48410034179689	-1083.933227539063	-284.5004577636719	43.57393646240235	-1136.778076171875	-372.1037597656251	661.1486816406251	-865.2539672851565	-306.2981262207032	659.3394165039064	-861.1899414062502	-287.3155212402344	686.8774414062501	-864.9670410156252	-258.4581298828126	591.2650146484376	-880.3654785156252	-154.22607421875	521.8529052734376	-882.5311279296877	-122.1084136962891	533.1764526367189	-997.9906005859377	-4.928068637847901	438.0139465332032	-887.578063964844	-3.647026300430299	324.7708129882813	-879.0396728515627	29.443510055542	358.0663452148438	-876.5183105468752	81.4380340576172	344.8806762695313	-901.4927978515627	138.674560546875	222.2669067382813	-891.285095214844	143.4098510742188	264.0892028808594	-969.6867675781252	139.2968902587891	153.5187072753907	-945.6887207031252	265.6264343261719	329.8304138183594	-942.479675292969	263.3994750976563	332.2553100585938	-889.9160156250002	257.1338500976563	280.1793212890626	-847.2404785156252	-4217.162109375001	853.242370605469	-3944.636230468751	
892	4.455	-172.7783508300782	1557.5703125	-1111.96240234375	-350.6129455566407	1491.72314453125	-1184.744140625	-330.5691528320313	1500.916748046875	-1032.782958984375	-400.5671386718751	1374.5966796875	-1117.330200195313	-532.6948242187501	1099.207641601563	-1070.202758789063	-258.6824340820313	1286.007202148438	-1113.403564453125	-327.4044189453126	1374.009399414063	-1249.744506835938	-242.6701812744141	1359.989990234375	-1398.28955078125	-198.3990325927735	1376.896728515625	-1389.730346679688	-192.694564819336	1353.342041015625	-1446.744262695313	-152.8784484863282	1346.81640625	-1469.468017578125	-100.4789276123047	1291.872192382813	-1428.717651367188	97.96707153320315	1368.55029296875	-1573.950805664063	57.1471290588379	1367.353271484375	-1634.614624023438	150.20556640625	1415.027709960938	-1606.968383789063	-316.2120056152344	1383.113647460938	-994.3814086914065	-196.8433685302735	1397.130126953125	-855.341979980469	-173.5689849853516	1422.102905273438	-893.0205688476565	-131.3197326660157	1423.7294921875	-850.417175292969	-87.27000427246095	1430.042358398438	-845.5491333007815	-56.59241867065431	1351.31005859375	-860.9722900390627	181.0492553710938	1458.041259765625	-848.9925537109377	161.7139892578125	1478.000854492188	-779.7270507812502	255.5746002197266	1494.1240234375	-840.8536376953127	-401.7301025390626	889.2535400390627	-1158.570922851563	-407.8826293945314	892.3250732421877	-933.7456665039065	-577.7432861328126	971.8916625976565	-1053.081909179688	-594.1665649414064	945.9283447265627	-1080.498168945313	-598.1071166992189	946.2250976562502	-1026.243408203125	-411.3810119628907	697.3214111328126	-1217.675659179688	-332.2920227050782	665.0629882812501	-1210.73681640625	-298.3329162597657	696.9760131835939	-1202.663208007813	-317.9592285156251	606.1318969726564	-1198.431396484375	-200.2013854980469	485.0201721191407	-1165.55810546875	-195.5229187011719	483.4028320312501	-1049.98779296875	-227.0861358642579	308.2344360351563	-1084.218872070313	-285.6920776367188	275.7985839843751	-1145.354858398438	-253.3209838867188	263.7501831054688	-1116.912841796875	-284.4642944335938	198.5708312988282	-1074.208618164063	-375.8103332519532	127.7699661254883	-1110.633544921875	-337.7448425292969	138.7305755615235	-1027.69921875	-447.9724121093751	116.4132156372071	-1064.221069335938	-241.7172393798829	63.66523361206056	-1038.394897460938	-235.3879699707032	57.54396438598634	-1083.880615234375	-284.4685974121094	43.59855651855469	-1136.723754882813	-371.8447875976563	661.8072509765626	-865.082702636719	-305.9168395996094	660.1402587890626	-860.9030761718752	-287.0162048339844	687.4760131835939	-864.7476806640627	-258.2547912597657	591.9160766601564	-880.007263183594	-154.1615753173828	522.2563476562501	-882.3255615234377	-122.034423828125	533.6751098632814	-997.8334960937502	-4.993767261505128	438.4580688476564	-887.3051757812502	-3.611009359359742	325.2845764160157	-878.7180786132815	29.46633338928223	358.5412902832032	-876.1731567382815	81.48011016845705	345.1578063964844	-901.212829589844	138.6365661621094	222.5542907714844	-890.8543701171877	143.4425201416016	264.4343261718751	-969.386657714844	139.0061950683594	153.7220153808594	-945.0383300781252	265.7149658203126	330.1211853027344	-942.093688964844	263.1591186523438	332.5955810546876	-889.6010742187502	257.1416625976563	280.5355224609376	-846.7993774414065	-4217.398437500001	853.2689208984377	-3944.768554687501	
893	4.46	-173.2481536865235	1558.960815429688	-1112.30615234375	-351.0770874023438	1492.611083984375	-1185.236938476563	-330.9695739746094	1502.12548828125	-1033.212646484375	-400.8457946777345	1375.598876953125	-1117.547973632813	-532.6033325195314	1100.004760742188	-1070.040405273438	-258.7346496582032	1287.252685546875	-1113.488037109375	-327.5463867187501	1374.818603515625	-1249.965942382813	-242.7737426757813	1360.770263671875	-1398.410766601563	-198.5440216064454	1377.5830078125	-1389.767944335938	-192.6604003906251	1354.063354492188	-1446.833251953125	-152.9078674316407	1347.66357421875	-1469.410034179688	-100.2964324951172	1292.547729492188	-1428.66845703125	98.44448852539065	1369.918090820313	-1573.604370117188	57.4547462463379	1368.286987304688	-1634.328002929688	150.0264434814453	1416.7373046875	-1606.470092773438	-316.7081298828126	1384.533203125	-994.417175292969	-197.3609161376954	1398.734741210938	-855.365661621094	-173.7354888916016	1423.613647460938	-893.3472900390627	-131.6061553955078	1425.268920898438	-850.6496582031252	-87.29063415527345	1431.464477539063	-845.7288818359377	-56.90085220336915	1352.82177734375	-860.691101074219	180.7203063964844	1459.41357421875	-848.7263793945315	161.4240875244141	1479.485717773438	-779.684020996094	255.0128631591797	1495.519897460938	-840.6386718750002	-401.3963317871095	890.230651855469	-1158.3984375	-407.4903564453126	893.384948730469	-933.732116699219	-577.3075561523439	972.6904907226565	-1052.926391601563	-593.8748168945314	946.669860839844	-1080.334716796875	-597.7689208984376	947.1143798828127	-1026.057739257813	-411.2983398437501	697.9586791992189	-1217.385986328125	-332.2286071777344	665.5017089843751	-1210.505249023438	-298.1956481933594	697.3880615234376	-1202.382568359375	-317.8792419433594	606.4653930664064	-1198.290405273438	-200.3529663085938	485.093719482422	-1165.350830078125	-195.8035736083985	483.5301513671876	-1049.720947265625	-227.2545471191407	308.4758911132813	-1084.048828125	-285.8599548339844	275.9385986328126	-1145.212768554688	-253.2792358398438	263.7663574218751	-1116.740966796875	-284.5780944824219	198.6717224121094	-1074.119018554688	-375.8446960449219	127.7937622070313	-1110.529418945313	-337.7406311035157	138.7319946289063	-1027.568237304688	-447.7560424804689	116.1598739624024	-1064.27197265625	-241.7218627929688	63.59429168701173	-1038.410522460938	-235.4329681396485	57.55249786376955	-1083.809814453125	-284.5448913574219	43.69428634643555	-1136.756958007813	-371.4231567382813	662.6140136718751	-864.861267089844	-305.9416503906251	661.1737060546876	-860.3385009765627	-286.5701904296876	688.3131713867189	-864.5660400390627	-258.1326599121094	592.3677978515626	-879.753845214844	-154.1242065429688	522.8044433593751	-882.0554809570315	-121.9779891967774	534.1517944335939	-997.6857910156252	-4.879250526428224	438.9433593750001	-887.0292968750002	-3.594470024108888	325.7701110839844	-878.2703857421877	29.47395896911622	359.0349426269532	-875.8887329101565	81.50620269775392	345.6073913574219	-900.9819335937502	138.5281677246094	223.0764312744141	-890.425720214844	143.4105377197266	264.8003540039063	-969.0830688476565	138.9862060546875	154.0485382080078	-944.6359863281252	265.8415832519532	330.3914184570313	-941.8527832031252	263.0823059082032	332.9475708007813	-889.3442993164065	257.1455993652344	280.7248535156251	-846.8300781250002	-4217.040039062501	853.168395996094	-3944.806396484376	
894	4.465	-173.6848297119141	1560.179809570313	-1112.87060546875	-351.5906066894532	1493.515258789063	-1185.77197265625	-331.2758178710938	1503.462036132813	-1033.53173828125	-401.0777893066407	1376.629638671875	-1117.875854492188	-532.3947143554689	1100.799926757813	-1070.011840820313	-259.1140441894532	1288.31591796875	-1113.60009765625	-327.7007141113282	1375.687133789063	-1250.062255859375	-243.3181610107422	1361.861572265625	-1398.388549804688	-198.7795410156251	1378.55810546875	-1389.812744140625	-192.7843322753907	1354.810302734375	-1446.828857421875	-152.8905792236328	1348.500732421875	-1469.4365234375	-100.2125396728516	1293.49755859375	-1428.598754882813	98.04882812500003	1371.412353515625	-1573.299926757813	57.4009132385254	1369.59912109375	-1634.079711914063	150.0533905029297	1418.054565429688	-1606.09814453125	-316.8168640136719	1385.669311523438	-994.783630371094	-197.468978881836	1400.051147460938	-855.601501464844	-174.12890625	1424.953491210938	-893.3687133789065	-132.0792083740235	1426.775268554688	-850.6040649414065	-87.6733856201172	1432.90966796875	-845.7624511718752	-57.2177200317383	1354.12353515625	-860.5740356445315	180.290283203125	1460.866088867188	-848.5686645507815	160.98974609375	1481.087646484375	-779.6201171875002	254.8597564697266	1496.859130859375	-840.470397949219	-401.0670776367189	890.8182373046877	-1158.179321289063	-407.014862060547	894.3779907226565	-933.8342285156252	-576.9970092773439	973.5557250976565	-1052.8505859375	-593.5809936523439	947.5261230468752	-1080.090454101563	-597.4850463867189	947.980407714844	-1025.843994140625	-411.173065185547	698.5898437500001	-1217.142456054688	-332.0722656250001	665.8961791992189	-1210.272827148438	-298.0737304687501	697.6884765625001	-1202.206176757813	-317.9275817871094	606.8010253906251	-1198.0283203125	-200.5601043701172	485.2054443359376	-1165.088500976563	-196.0162048339844	483.7466125488282	-1049.5791015625	-227.4476470947266	308.5511779785157	-1083.8115234375	-285.9188537597657	275.9909057617188	-1144.971435546875	-253.2798919677735	263.8505249023438	-1116.527099609375	-284.7098999023438	198.7219848632813	-1074.017822265625	-375.8442687988282	127.8395233154297	-1110.4501953125	-337.7168884277344	138.7345733642578	-1027.462158203125	-447.785125732422	116.2019958496094	-1064.181030273438	-241.7288208007813	63.54095840454103	-1038.386474609375	-235.3804016113282	57.50012588500978	-1083.861694335938	-284.4471130371094	43.71027374267579	-1136.719604492188	-371.3573608398438	663.6745605468751	-864.398864746094	-305.5745544433594	661.9737548828126	-860.1285400390627	-286.3188476562501	689.2338867187501	-864.3161621093752	-257.9538574218751	593.2007446289064	-879.4923095703127	-154.0906677246094	523.4249877929689	-881.6888427734377	-121.8806381225586	534.5656738281251	-997.4197387695315	-4.858124256134034	439.4139709472657	-886.7138671875002	-3.843041181564332	326.0673828125001	-877.3281250000002	29.51106643676759	359.5521240234376	-875.584655761719	81.54763793945314	346.0470275878907	-900.621276855469	138.4327392578125	223.3987884521485	-890.069030761719	143.3069152832032	265.1640930175782	-968.863952636719	139.447250366211	153.9276733398438	-944.7791748046877	266.5827636718751	330.6964111328126	-941.4138183593752	263.0359497070313	333.2160644531251	-889.0272216796877	257.0400085449219	281.0777587890626	-846.4976196289065	-4217.210449218751	853.2252197265627	-3944.591064453126	
